# xmcd
# Copyright (C) 1995-1998 Ti Kan
#
# Track frame offsets:
#       150
#       89911
#       180564
#
# Disc length: 3550 seconds
#
# Revision: 0
# Processed by: cddbd v1.5.2PL0 Copyright (c) Steve Scherf et al.
# Submitted via: CD-Import v1.0
#
DISCID=220ddc03
DTITLE=Lokalfilter - 
DYEAR=1900
DGENRE=
TTITLE0=Lokalfilter Rita Hey1
TTITLE1=Lokalfilter Rita Hey2
TTITLE2=Lokalfilter Rita Hey3
EXTD=
EXTT0=
EXTT1=
EXTT2=
PLAYORDER=
